<svg width="39" height="28" viewBox="0 0 39 28" fill="none" xmlns="http://www.w3.org/2000/svg">
<g clip-path="url(#clip0)">
<path d="M35.3842 28H3.61581C1.62047 28 0 26.3479 0 24.3135V3.68648C0 1.65214 1.62047 0 3.61581 0H35.3963C37.3916 0 39.0121 1.65214 39.0121 3.68648V24.3135C39 26.3479 37.3795 28 35.3842 28Z" fill="#006FCF"/>
<mask id="mask0" mask-type="alpha" maskUnits="userSpaceOnUse" x="0" y="6" width="39" height="17">
<path d="M0 6.64233V22.9048H38.9758V6.64233H0Z" fill="white"/>
</mask>
<g mask="url(#mask0)">
<path d="M34.1991 13.5838H37.1256V6.64233H34.0056V7.75198L33.3163 6.64233H30.5953V8.04788L29.9907 6.64233H25.4921C25.2744 6.64233 25.0688 6.65466 24.8633 6.69165C24.694 6.71631 24.5246 6.7533 24.3553 6.81494C24.2223 6.85193 24.1014 6.90125 23.9805 6.9629C23.8353 7.02454 23.7023 7.11085 23.5814 7.19716V6.9629V6.65466H8.87628L8.47721 7.85061L8.06605 6.64233H4.65581V8.06021L4.03907 6.64233H1.24558L0 9.60138V12.955V13.5714H1.97116L2.33395 12.5728H3.02326L3.39814 13.5714H18.587V12.5604L19.3488 13.5714H23.5451V13.3495V13.0659C23.654 13.1399 23.7628 13.2016 23.8837 13.2509C23.9926 13.3002 24.1135 13.3495 24.2344 13.3865C24.3795 13.4358 24.5247 13.4728 24.6819 13.4975C24.9237 13.5468 25.1656 13.5591 25.3953 13.5591H27.9107L28.2735 12.5604H28.9628L29.3377 13.5591H33.546V12.5234L34.1991 13.5838ZM38.9758 22.4856V15.9757H38.6372H14.8019L14.1851 16.8634L13.5805 15.9757H6.61488V22.9171H13.5442L14.1488 22.0171L14.7777 22.9171H19.107V21.4129H19.0586C19.6028 21.4129 20.0865 21.3143 20.5219 21.154V22.9171H23.5451V21.9061L24.307 22.9171H37.4279C37.8028 22.9171 38.1535 22.8555 38.48 22.7322C38.6493 22.6582 38.8186 22.5842 38.9758 22.4856Z" fill="#F7F7F7"/>
<mask id="mask1" mask-type="alpha" maskUnits="userSpaceOnUse" x="7" y="17" width="32" height="5">
<path d="M39 21.7856V17.1005H7.69116V21.7856H39Z" fill="white"/>
</mask>
<g mask="url(#mask1)">
<path d="M37.4521 20.8486H35.094V21.7856H37.4158C38.4074 21.7856 39 21.1692 39 20.2938C39 19.4554 38.4679 18.9745 37.573 18.9745H36.5088C36.2428 18.9745 36.0614 18.8019 36.0614 18.5307C36.0614 18.2471 36.2428 18.0622 36.5088 18.0622H38.5042L38.9153 17.1128H36.5451C35.5535 17.1128 34.9609 17.7293 34.9609 18.5677C34.9609 19.4307 35.5172 19.9239 36.3879 19.9239H37.44C37.706 19.9239 37.8874 20.0965 37.8874 20.3801C37.9116 20.6513 37.7181 20.8486 37.4521 20.8486ZM33.0865 20.8486H30.7284V21.7856H33.0502C34.0419 21.7856 34.6344 21.1692 34.6344 20.2938C34.6344 19.4554 34.1023 18.9745 33.2074 18.9745H32.1433C31.8772 18.9745 31.6958 18.8019 31.6958 18.5307C31.6958 18.2471 31.8772 18.0622 32.1433 18.0622H34.1386L34.5498 17.1128H32.1795C31.1879 17.1128 30.5953 17.7293 30.5953 18.5677C30.5953 19.4307 31.1516 19.9239 32.0223 19.9239H33.0744C33.3405 19.9239 33.5219 20.0965 33.5219 20.3801C33.534 20.6513 33.3526 20.8486 33.0865 20.8486ZM30.0633 18.0498V17.1005H26.387V21.7856H30.0633V20.8363H27.4874V19.8992H30.0028V18.9622H27.4874V18.0498H30.0633ZM23.9079 18.0498C24.307 18.0498 24.5126 18.3087 24.5126 18.6293C24.5126 18.9499 24.307 19.2088 23.9079 19.2088H22.614V18.0498H23.9079ZM22.614 20.0965H23.134L24.5005 21.7856H25.867L24.3433 20.0595C25.1293 19.9116 25.5888 19.3321 25.5888 18.5923C25.5888 17.7169 24.9842 17.1128 24.0046 17.1128H21.5135V21.798H22.614V20.0965ZM19.8084 18.6663C19.8084 18.9869 19.6149 19.2458 19.2279 19.2458H17.9098V18.0991H19.2279C19.6149 18.0991 19.8084 18.3457 19.8084 18.6663ZM16.8093 17.1005V21.7856H17.9098V20.2445H19.2884C20.2921 20.2445 20.9209 19.5787 20.9209 18.6786C20.9209 17.7539 20.3163 17.1128 19.3367 17.1128H16.8093V17.1005ZM15.1888 21.7856H16.5674L14.7293 19.4307L16.5553 17.1128H15.213L14.0884 18.5923L12.9637 17.1128H11.5851L13.4233 19.4554L11.5972 21.798H12.9395L14.0642 20.2938L15.1888 21.7856ZM11.3553 18.0498V17.1005H7.69116V21.7856H11.3674V20.8363H8.79163V19.8992H11.307V18.9622H8.79163V18.0498H11.3553Z" fill="#006FCF"/>
</g>
<path d="M32.6756 9.65092L32.6635 9.26871L32.8932 9.65092L34.6467 12.4497H35.9286V7.76453H34.8523V10.477L34.8644 10.8222L34.6588 10.477L32.9416 7.76453H31.5872V12.4497H32.6635V9.65092H32.6756ZM28.2737 9.5153L28.6123 8.63991L28.9509 9.5153L29.3621 10.551H27.8867L28.2737 9.5153ZM30.0998 12.4497H31.3332L29.3742 7.76453H27.923L25.9519 12.4497H27.1249L27.5119 11.451H29.7007L30.0998 12.4497ZM25.2988 12.4497H25.3593L25.8067 11.451H25.4681C24.7184 11.451 24.2709 10.9702 24.2709 10.1441V10.0701C24.2709 9.33036 24.67 8.77554 25.456 8.77554H26.6532V7.76453H25.3714C23.9565 7.76453 23.1826 8.73855 23.1826 10.0701V10.1564C23.1705 11.5373 23.9686 12.4374 25.2988 12.4497ZM21.3807 12.4497H22.4812V10.3907V7.76453H21.3807V10.3537V12.4497ZM19.0588 8.72622C19.4579 8.72622 19.6635 8.98513 19.6635 9.3057C19.6635 9.62626 19.4579 9.88518 19.0588 9.88518H17.7649V8.72622H19.0588ZM17.7649 10.7606H18.2849L19.6514 12.4497H21.0179L19.4942 10.7236C20.2802 10.5756 20.7398 9.99614 20.7398 9.25638C20.7398 8.381 20.1351 7.77686 19.1556 7.77686H16.6644V12.462H17.7649V10.7606ZM15.8663 8.71389V7.76453H12.19V12.4497H15.8663V11.488H13.2905V10.5633H15.8058V9.62626H13.2905V8.71389H15.8663ZM6.72395 9.25638L6.69976 7.98646L7.96953 12.4497H8.96116L10.2309 8.01111L10.2067 9.24405V12.4497H11.2709V7.76453H9.33604L8.46534 11.0811L7.58255 7.76453H5.64767V12.4497H6.71186V9.25638H6.72395ZM2.33418 9.5153L2.67279 8.63991L3.01139 9.5153L3.42255 10.551H1.93511L2.33418 9.5153ZM4.16023 12.4497H5.40581L3.44674 7.76453H1.99558L0.0244141 12.4497H1.19744L1.58441 11.451H3.77325L4.16023 12.4497Z" fill="#006FCF"/>
</g>
</g>
<defs>
<clipPath id="clip0">
<rect width="39" height="28" fill="white"/>
</clipPath>
</defs>
</svg>
