<svg width="22" height="22" viewBox="0 0 22 22" fill="none" xmlns="http://www.w3.org/2000/svg">
<path d="M10.9588 3C12.8144 3 14.2835 4.01739 14.2835 7.38261C14.2835 9.8087 12.8144 11.7652 10.9588 11.7652C9.1031 11.7652 7.63403 9.73043 7.63403 7.30435C7.63403 4.01739 9.1031 3 10.9588 3Z" stroke="#242222" stroke-width="1.7" stroke-miterlimit="10"/>
<path d="M8.56186 12.313C7.63402 13.0956 7.24742 13.2521 6.62887 13.5652C5.31443 14.1913 4 14.5043 4 16.1478C4 16.6174 4 16.7739 4 17.0087C4 18.0261 4.23196 18.1043 5.15979 18.5739C6.86082 19.513 8.56186 19.8261 10.8814 19.7478C13.201 19.7478 14.9794 19.4348 16.6031 18.5739C17.5309 18.0261 17.7629 18.0261 17.7629 17.0087C17.7629 16.7739 17.7629 16.6174 17.7629 16.1478C17.7629 14.4261 16.4485 14.1913 15.134 13.5652C14.5155 13.2521 14.1289 13.0956 13.201 12.313" stroke="#242222" stroke-width="1.7" stroke-miterlimit="10"/>
</svg>
