<svg width="152" height="36" viewBox="0 0 152 36" fill="none" xmlns="http://www.w3.org/2000/svg">
    <path d="M55.7459 26C53.5044 26 51.653 25.2308 50.1918 23.6923C48.7306 22.1538 48 20.2564 48 18C48 15.7289 48.7306 13.8315 50.1918 12.3077C51.653 10.7692 53.5044 10 55.7459 10C57.0936 10 58.3349 10.3297 59.4698 10.989C60.6189 11.6337 61.5127 12.5128 62.1511 13.6264L59.6188 15.1429C59.2499 14.4542 58.725 13.9194 58.0441 13.5385C57.3631 13.1429 56.597 12.9451 55.7459 12.9451C54.2988 12.9451 53.1284 13.4139 52.2347 14.3516C51.3551 15.2894 50.9153 16.5055 50.9153 18C50.9153 19.4799 51.3551 20.6886 52.2347 21.6264C53.1284 22.5641 54.2988 23.033 55.7459 23.033C56.597 23.033 57.3631 22.8425 58.0441 22.4615C58.7392 22.0659 59.2641 21.5311 59.6188 20.8571L62.1511 22.3736C61.5127 23.4872 60.626 24.3736 59.4911 25.033C58.3562 25.6777 57.1078 26 55.7459 26Z" fill="white"/>
    <path d="M71.976 14.7033H74.7211V25.6923H71.976V24.3956C71.1532 25.4652 69.997 26 68.5074 26C67.0888 26 65.8687 25.4432 64.8473 24.3297C63.8401 23.2015 63.3364 21.8242 63.3364 20.1978C63.3364 18.5714 63.8401 17.2015 64.8473 16.0879C65.8687 14.9597 67.0888 14.3956 68.5074 14.3956C69.997 14.3956 71.1532 14.9304 71.976 16V14.7033ZM66.9114 22.4396C67.4647 23.011 68.167 23.2967 69.0181 23.2967C69.8693 23.2967 70.5716 23.011 71.1248 22.4396C71.6923 21.8535 71.976 21.1062 71.976 20.1978C71.976 19.2894 71.6923 18.5495 71.1248 17.978C70.5716 17.3919 69.8693 17.0989 69.0181 17.0989C68.167 17.0989 67.4647 17.3919 66.9114 17.978C66.3582 18.5495 66.0815 19.2894 66.0815 20.1978C66.0815 21.1062 66.3582 21.8535 66.9114 22.4396Z" fill="white"/>
    <path d="M88.9781 14.3956C90.1982 14.3956 91.1699 14.8059 91.8934 15.6264C92.6311 16.4469 93 17.5458 93 18.9231V25.6923H90.2549V19.1209C90.2549 18.4615 90.0989 17.9487 89.7867 17.5824C89.4746 17.2161 89.0349 17.033 88.4674 17.033C87.8432 17.033 87.3538 17.2454 86.9991 17.6703C86.6586 18.0952 86.4884 18.7106 86.4884 19.5165V25.6923H83.7433V19.1209C83.7433 18.4615 83.5872 17.9487 83.2751 17.5824C82.963 17.2161 82.5232 17.033 81.9558 17.033C81.3457 17.033 80.8563 17.2454 80.4875 17.6703C80.1328 18.0952 79.9555 18.7106 79.9555 19.5165V25.6923H77.2104V14.7033H79.9555V15.8681C80.5939 14.8864 81.5798 14.3956 82.9134 14.3956C84.2185 14.3956 85.1832 14.9231 85.8074 15.978C86.5167 14.9231 87.5736 14.3956 88.9781 14.3956Z" fill="white"/>
    <path d="M101.289 25.7412L97 10.6469H98.5634L102.218 23.6927L106.063 10.6469H107.796L111.641 23.6927L115.295 10.6469H116.859L112.57 25.7412H110.796L106.929 12.6307L103.063 25.7412H101.289Z" fill="#C2C2C2"/>
    <path d="M126.565 24.3827C125.494 25.4609 124.185 26 122.635 26C121.086 26 119.769 25.4609 118.685 24.3827C117.614 23.2902 117.079 21.9461 117.079 20.3504C117.079 18.7547 117.614 17.4178 118.685 16.3396C119.769 15.2471 121.086 14.7008 122.635 14.7008C124.185 14.7008 125.494 15.2471 126.565 16.3396C127.649 17.4178 128.192 18.7547 128.192 20.3504C128.192 21.9461 127.649 23.2902 126.565 24.3827ZM119.678 23.3908C120.48 24.2102 121.466 24.6199 122.635 24.6199C123.804 24.6199 124.79 24.2102 125.593 23.3908C126.396 22.5571 126.797 21.5436 126.797 20.3504C126.797 19.1572 126.396 18.1509 125.593 17.3315C124.79 16.4978 123.804 16.0809 122.635 16.0809C121.466 16.0809 120.48 16.4978 119.678 17.3315C118.875 18.1509 118.473 19.1572 118.473 20.3504C118.473 21.5436 118.875 22.5571 119.678 23.3908Z" fill="#C2C2C2"/>
    <path d="M131.919 16.7493C132.567 15.4411 133.68 14.7871 135.257 14.7871V16.1671C134.299 16.1671 133.504 16.4546 132.87 17.0296C132.236 17.6047 131.919 18.5103 131.919 19.7466V25.7412H130.525V14.9596H131.919V16.7493Z" fill="#C2C2C2"/>
    <path d="M137.168 25.7412V10H138.562V25.7412H137.168Z" fill="#C2C2C2"/>
    <path d="M150.606 10.6469H152V25.7412H150.606V23.628C149.634 25.2093 148.211 26 146.338 26C144.831 26 143.542 25.4537 142.472 24.3612C141.416 23.2686 140.888 21.9317 140.888 20.3504C140.888 18.7691 141.416 17.4322 142.472 16.3396C143.542 15.2471 144.831 14.7008 146.338 14.7008C148.211 14.7008 149.634 15.4915 150.606 17.0728V10.6469ZM143.486 23.3908C144.289 24.2102 145.275 24.6199 146.444 24.6199C147.613 24.6199 148.599 24.2102 149.401 23.3908C150.204 22.5571 150.606 21.5436 150.606 20.3504C150.606 19.1572 150.204 18.1509 149.401 17.3315C148.599 16.4978 147.613 16.0809 146.444 16.0809C145.275 16.0809 144.289 16.4978 143.486 17.3315C142.683 18.1509 142.282 19.1572 142.282 20.3504C142.282 21.5436 142.683 22.5571 143.486 23.3908Z" fill="#C2C2C2"/>
    <path d="M4.65169 0H0V4.66009H4.65169V0Z" fill="#3DD5A2"/>
    <path fill-rule="evenodd" clip-rule="evenodd" d="M31.4329 0H9.30341V4.66009H30.921V30.9768H4.6517V9.32019H0V31.4896C0 33.7668 1.86671 35.6369 4.13987 35.6369H31.4329C33.706 35.6369 35.5727 33.7668 35.5727 31.4896V4.13225C35.5727 1.85499 33.7211 0 31.4329 0Z" fill="white"/>
    <path fill-rule="evenodd" clip-rule="evenodd" d="M17.7939 13.9803C19.9166 13.9803 21.6327 15.6996 21.6327 17.8261C21.6327 19.9525 19.9166 21.6718 17.7939 21.6718C15.6713 21.6718 13.9552 19.9525 13.9552 17.8261C13.9552 15.6996 15.6713 13.9803 17.7939 13.9803ZM17.7939 26.3168C13.1121 26.3168 9.30347 22.5163 9.30347 17.811C9.30347 13.1056 13.0971 9.30518 17.7939 9.30518C22.4758 9.30518 26.2844 13.1056 26.2844 17.811C26.2844 22.5163 22.4758 26.3168 17.7939 26.3168Z" fill="#3DD5A2"/>
</svg>
