<svg width="217" height="45" fill="none" xmlns="http://www.w3.org/2000/svg"><g clip-path="url(#clip0)"><path d="M0 18.137v-5.801L14.184.459V6.64L3.575 15.184l10.609 8.596v6.233L0 18.136z" fill="#000002"/><path d="M14.184 34.987l10.608-8.543-10.608-8.596v-6.234l14.183 11.877v5.8L14.184 41.168v-6.181z" fill="#3DD5A2"/><path d="M38.568 19.147h9.872v3.49H34.9V.382h13.382v3.49h-9.714V9.66h8.925v3.464h-8.925v6.024zm20.204 3.91c-2.406 0-4.404-.813-6.007-2.414-1.617-1.614-2.42-3.596-2.42-5.945 0-2.375.803-4.37 2.407-5.97 1.603-1.602 3.601-2.402 6.007-2.402 1.55 0 2.958.367 4.233 1.115 1.275.748 2.234 1.732 2.865 2.992l-2.97 1.72a4.027 4.027 0 00-1.644-1.799c-.736-.433-1.577-.656-2.537-.656-1.406 0-2.576.473-3.523 1.43-.946.959-1.42 2.14-1.42 3.57 0 1.418.474 2.612 1.42 3.557.947.958 2.117 1.43 3.523 1.43.933 0 1.775-.223 2.537-.67.75-.445 1.328-1.036 1.71-1.784l2.97 1.68a7.533 7.533 0 01-2.931 3.018c-1.262.761-2.682 1.129-4.22 1.129zM77.504.382c3.063 0 5.6 1.076 7.637 3.215 2.024 2.139 3.037 4.79 3.037 7.926 0 3.124-1.013 5.748-3.037 7.9-2.024 2.153-4.574 3.229-7.637 3.229h-8.768V.381h8.768zm0 18.766c2.103 0 3.812-.722 5.14-2.165 1.327-1.444 1.984-3.268 1.984-5.473 0-2.23-.657-4.055-1.984-5.485-1.328-1.43-3.05-2.153-5.14-2.153h-5.1v15.276h5.1zM94 16.155c.25 1.207.841 2.139 1.748 2.782.907.643 2.025.971 3.352.971 1.827 0 3.195-.656 4.115-1.968l2.839 1.653c-1.577 2.31-3.904 3.465-6.98 3.465-2.59 0-4.68-.788-6.283-2.375-1.591-1.575-2.393-3.583-2.393-5.998 0-2.375.789-4.37 2.353-5.971s3.589-2.402 6.047-2.402c2.34 0 4.259.814 5.757 2.454 1.499 1.628 2.248 3.623 2.248 5.945 0 .355-.039.84-.131 1.43H94.001v.014zm-.026-2.795h9.372c-.236-1.287-.762-2.27-1.604-2.927-.841-.656-1.827-.984-2.944-.984-1.275 0-2.34.354-3.181 1.05-.868.695-1.407 1.653-1.643 2.86zm26.027-6.615h3.76l-6.218 15.906h-3.983l-6.205-15.906h3.76l4.456 12.087 4.43-12.087z" fill="#141515"/><path d="M133.489 23.032c-2.038 0-3.786-.486-5.245-1.444s-2.471-2.297-3.05-3.99l1.906-1.115c.408 1.378 1.144 2.454 2.235 3.228 1.078.775 2.471 1.155 4.167 1.155 1.656 0 2.945-.367 3.878-1.102.92-.735 1.38-1.706 1.38-2.914 0-1.168-.421-2.047-1.275-2.637-.854-.59-2.248-1.208-4.206-1.85-2.314-.762-3.852-1.379-4.588-1.851-1.696-1.01-2.55-2.494-2.55-4.423 0-1.89.657-3.372 1.972-4.475 1.314-1.09 2.944-1.64 4.876-1.64 1.749 0 3.247.446 4.522 1.351 1.275.906 2.222 2.048 2.84 3.452l-1.88 1.05c-1.025-2.454-2.853-3.688-5.482-3.688-1.38 0-2.497.341-3.352 1.01-.854.683-1.275 1.628-1.275 2.835 0 1.103.382 1.93 1.144 2.48.762.552 2.024 1.116 3.799 1.68.802.276 1.38.473 1.735.59.355.119.854.303 1.525.578.67.263 1.157.499 1.485.696.316.197.71.472 1.157.827.46.354.789.695.986 1.05a6.9 6.9 0 01.539 1.273c.158.498.237 1.036.237 1.6 0 1.89-.697 3.4-2.077 4.528-1.341 1.181-3.155 1.745-5.403 1.745zM152.471 8.78h-4.588v9.632c0 .866.171 1.496.513 1.864.341.367.854.564 1.537.577.684.013 1.525 0 2.551-.053v1.85c-2.235.342-3.904.185-5.022-.471-1.117-.657-1.669-1.903-1.669-3.754V8.78h-3.352V6.745h3.352V2.927l2.103-.63v4.448h4.588V8.78h-.013zm14.722-2.035h2.103v15.906h-2.103v-2.48c-1.183 1.902-2.971 2.86-5.35 2.86-1.932 0-3.457-.59-4.575-1.771-1.117-1.181-1.669-2.756-1.669-4.75V6.744h2.103v9.764c0 1.418.381 2.52 1.131 3.307.749.788 1.827 1.181 3.194 1.181 1.538 0 2.774-.485 3.733-1.443.96-.971 1.433-2.454 1.433-4.475V6.745zm20.27-6.364h2.103v22.27h-2.103v-3.123c-1.472 2.335-3.615 3.504-6.441 3.504-2.274 0-4.22-.814-5.81-2.415-1.591-1.601-2.406-3.583-2.406-5.919 0-2.336.802-4.304 2.406-5.918 1.603-1.615 3.549-2.415 5.81-2.415 2.826 0 4.969 1.168 6.441 3.504V.38zm-10.74 18.78c1.21 1.22 2.695 1.823 4.456 1.823 1.762 0 3.247-.603 4.457-1.824 1.209-1.22 1.814-2.703 1.814-4.462 0-1.758-.605-3.254-1.814-4.475-1.21-1.22-2.695-1.824-4.457-1.824-1.761 0-3.246.604-4.456 1.824-1.209 1.22-1.814 2.704-1.814 4.475 0 1.759.592 3.242 1.814 4.462zm19.429-16.234a1.461 1.461 0 01-1.078.446 1.44 1.44 0 01-1.078-.446 1.457 1.457 0 01-.447-1.077c0-.42.145-.787.447-1.076a1.512 1.512 0 011.078-.446c.421 0 .789.144 1.078.446.302.302.447.656.447 1.076 0 .42-.145.775-.447 1.077zm-2.13 19.724V6.745h2.104v15.906h-2.104zm19.928-2.021c-1.63 1.601-3.601 2.402-5.941 2.402s-4.325-.801-5.942-2.402c-1.63-1.601-2.432-3.583-2.432-5.932s.815-4.33 2.432-5.932c1.63-1.6 3.602-2.401 5.942-2.401 2.34 0 4.324.8 5.941 2.401 1.63 1.601 2.432 3.583 2.432 5.932 0 2.35-.802 4.33-2.432 5.932zm-10.397-1.47c1.209 1.22 2.694 1.824 4.456 1.824 1.761 0 3.247-.603 4.456-1.824 1.209-1.22 1.814-2.703 1.814-4.462 0-1.758-.605-3.254-1.814-4.475-1.209-1.22-2.695-1.824-4.456-1.824-1.762 0-3.247.604-4.456 1.824-1.21 1.22-1.815 2.704-1.815 4.475-.013 1.759.592 3.242 1.815 4.462z" fill="#3DD5A2"/><path d="M42.328 34.646a3.365 3.365 0 011.38 1.18c.342.513.513 1.103.513 1.786 0 1.01-.355 1.85-1.065 2.532-.71.683-1.578 1.024-2.59 1.024h-5.442V28.596h5.048c.986 0 1.814.328 2.497.984.684.656 1.026 1.47 1.026 2.441 0 1.115-.46 1.995-1.367 2.625zm-2.156-4.489h-3.365v3.846h3.365c.526 0 .973-.184 1.327-.565a1.9 1.9 0 00.54-1.364 1.85 1.85 0 00-.553-1.352 1.753 1.753 0 00-1.314-.565zm.394 9.45c.565 0 1.039-.197 1.42-.591.381-.394.578-.88.578-1.457a1.94 1.94 0 00-.591-1.43 1.908 1.908 0 00-1.407-.59h-3.76v4.08h3.76v-.013zm5.468 1.561v-13.11H47.6v13.11h-1.564zm11.41-8.976h1.565v8.99h-1.565v-1.55c-.775 1.182-1.906 1.785-3.404 1.785-1.262 0-2.327-.459-3.22-1.378-.895-.918-1.328-2.034-1.328-3.346 0-1.312.447-2.428 1.327-3.346.881-.92 1.959-1.379 3.22-1.379 1.486 0 2.63.591 3.405 1.772v-1.548zm-3.207 7.703c.907 0 1.683-.315 2.287-.932.605-.617.92-1.378.92-2.296 0-.906-.302-1.68-.92-2.284-.604-.617-1.38-.932-2.287-.932-.894 0-1.656.315-2.26.932-.606.617-.921 1.378-.921 2.284 0 .905.302 1.68.92 2.296.605.617 1.367.932 2.261.932zm8.965-.223h4.785v1.496h-6.928v-1.037l4.588-6.456H61.23v-1.496h6.573v1.036l-4.601 6.457zm7.453-9.12c-.302 0-.552-.106-.762-.303a1.01 1.01 0 01-.302-.735c0-.288.105-.538.302-.748.21-.21.46-.315.762-.315.29 0 .54.105.736.315.21.21.303.46.303.748 0 .29-.105.538-.303.735a1.013 1.013 0 01-.736.302zm-.788 10.616v-8.99h1.564v8.99h-1.564zm8.439-9.213c1.051 0 1.906.328 2.537.998.63.669.96 1.561.96 2.703v5.512h-1.565v-5.433c0-.735-.197-1.3-.591-1.693-.395-.407-.934-.604-1.63-.604-.776 0-1.407.236-1.893.735-.487.486-.723 1.234-.723 2.231v4.764h-1.564v-8.99H75.4v1.3c.618-1.01 1.59-1.523 2.905-1.523zm13.132.237h1.55V40.8c0 1.326-.446 2.363-1.353 3.098-.907.735-1.985 1.102-3.234 1.102-1.012 0-1.88-.184-2.616-.564-.736-.38-1.288-.919-1.656-1.628l1.367-.774c.487 1.01 1.473 1.51 2.932 1.51.933 0 1.669-.25 2.208-.736.539-.485.802-1.154.802-2.008v-1.272c-.789 1.194-1.92 1.797-3.379 1.797-1.288 0-2.366-.459-3.26-1.364-.893-.906-1.327-2.021-1.327-3.32 0-1.3.447-2.415 1.328-3.32.88-.906 1.971-1.352 3.26-1.352 1.472 0 2.602.59 3.378 1.771v-1.548zm-5.482 6.706c.605.603 1.367.918 2.287.918.92 0 1.67-.315 2.288-.918.618-.604.92-1.365.92-2.284 0-.905-.302-1.653-.92-2.27-.605-.604-1.367-.919-2.288-.919-.92 0-1.669.302-2.287.919-.618.617-.92 1.365-.92 2.27 0 .919.302 1.68.92 2.284zm18.482-9.37c-.88-.066-1.524.078-1.958.446-.421.367-.644.984-.644 1.85v.354h2.589v1.155h-2.589v7.835h-1.183v-7.835h-1.538V32.18h1.538v-.355c0-1.168.328-2.06.985-2.664.658-.604 1.591-.866 2.8-.787v1.155zm8.453 2.664h1.183v8.99h-1.183v-1.76c-.828 1.313-2.038 1.982-3.642 1.982-1.288 0-2.379-.46-3.286-1.365s-1.354-2.02-1.354-3.346c0-1.312.46-2.428 1.354-3.346.907-.906 1.998-1.365 3.286-1.365 1.604 0 2.814.656 3.642 1.981v-1.771zm-6.06 7.008c.683.682 1.525 1.036 2.524 1.036.999 0 1.84-.341 2.524-1.036.683-.683 1.025-1.536 1.025-2.52 0-.998-.342-1.837-1.025-2.52-.684-.682-1.525-1.037-2.524-1.037-.999 0-1.828.342-2.524 1.037-.684.683-1.026 1.536-1.026 2.52 0 .997.342 1.837 1.026 2.52zm10.7-4.66c0 .407.184.736.539.972a4.32 4.32 0 001.314.564c.513.131 1.026.276 1.552.433.512.158.959.433 1.314.814.355.38.539.866.539 1.483 0 .76-.302 1.39-.907 1.876-.605.473-1.38.722-2.353.722-.868 0-1.604-.197-2.208-.577-.605-.38-1.039-.88-1.275-1.496l1.012-.59c.171.472.473.84.907 1.102.433.262.959.406 1.551.406.591 0 1.078-.118 1.472-.354.394-.236.592-.604.592-1.09 0-.406-.184-.734-.539-.97-.355-.237-.802-.42-1.315-.552a22.995 22.995 0 01-1.551-.446 2.964 2.964 0 01-1.314-.813c-.355-.381-.539-.867-.539-1.483 0-.735.289-1.339.88-1.838.579-.485 1.315-.735 2.209-.735.736 0 1.38.158 1.932.5a3 3 0 011.223 1.338l-.986.577c-.355-.84-1.065-1.26-2.156-1.26-.513 0-.96.119-1.328.368-.381.236-.565.59-.565 1.05zm11.647-1.207h-2.59v5.447c0 .485.092.84.289 1.05.184.21.486.314.868.328.381.013.854 0 1.433-.027v1.037c-1.262.184-2.209.105-2.84-.276-.631-.367-.946-1.076-.946-2.126v-5.433h-1.893V32.18h1.906v-2.153l1.183-.354v2.52h2.59v1.141zm17.535-1.141h.96l-2.84 8.99h-.986l-2.497-7.652-2.498 7.651h-.986l-2.839-8.99h.96l2.392 7.822 2.524-7.821h.933l2.524 7.821 2.353-7.821zm6.625-.197c1.315 0 2.393.46 3.208 1.404.815.932 1.235 2.047 1.235 3.32 0 .053 0 .118-.013.21 0 .092-.013.17-.013.21h-8.15c.105 1.01.513 1.824 1.209 2.428.697.617 1.565.932 2.603.932.723 0 1.354-.145 1.893-.447.539-.301.947-.695 1.223-1.18l.788.459c-.368.63-.907 1.115-1.577 1.483-.684.367-1.459.55-2.34.55-1.38 0-2.511-.432-3.405-1.325-.893-.892-1.327-2.008-1.327-3.372 0-1.339.434-2.454 1.301-3.347.868-.88 1.998-1.325 3.365-1.325zm0 .853c-1.025 0-1.879.315-2.55.958-.683.63-1.078 1.457-1.17 2.454h7.23c-.092-1.063-.473-1.903-1.144-2.507a3.42 3.42 0 00-2.366-.905zm11.318-.853c1.288 0 2.393.446 3.3 1.351.907.906 1.354 2.022 1.354 3.334 0 1.325-.46 2.428-1.354 3.333-.907.906-2.012 1.352-3.3 1.352a4.52 4.52 0 01-2.3-.604 4.1 4.1 0 01-1.578-1.667v2.087h-.893V28.61h.893v5.682a4.1 4.1 0 011.578-1.666c.683-.433 1.446-.63 2.3-.63zm-2.773 7.401c.736.735 1.643 1.116 2.708 1.116 1.064 0 1.971-.368 2.707-1.116.737-.748 1.105-1.653 1.105-2.716 0-1.063-.368-1.969-1.105-2.717-.736-.748-1.643-1.115-2.707-1.115-1.065 0-1.972.367-2.708 1.115-.737.748-1.105 1.654-1.105 2.717 0 1.063.368 1.968 1.105 2.716zm22.333-7.204h.92v8.99h-.92v-2.035a4.302 4.302 0 01-1.577 1.64c-.671.394-1.433.591-2.287.591-1.289 0-2.38-.46-3.3-1.352-.907-.905-1.367-2.008-1.367-3.333 0-1.312.46-2.428 1.367-3.333.907-.906 2.011-1.352 3.3-1.352.854 0 1.616.197 2.287.59.67.394 1.196.945 1.577 1.64v-2.046zm-6.507 7.204a3.705 3.705 0 002.708 1.116c1.065 0 1.972-.368 2.695-1.116.736-.748 1.104-1.653 1.104-2.716 0-1.063-.368-1.969-1.104-2.717-.736-.748-1.63-1.115-2.695-1.115-1.064 0-1.972.367-2.708 1.115-.736.748-1.104 1.654-1.104 2.717 0 1.063.368 1.968 1.104 2.716zm14.96-7.401c1.288 0 2.392.446 3.299 1.351.907.906 1.354 2.022 1.354 3.334 0 1.325-.46 2.428-1.354 3.333-.907.906-2.011 1.352-3.299 1.352-.855 0-1.617-.21-2.301-.604a4.105 4.105 0 01-1.577-1.667v5.683h-.894V32.205h.894v2.086a4.104 4.104 0 011.577-1.666c.684-.433 1.446-.63 2.301-.63zm-2.761 7.401c.736.735 1.643 1.116 2.708 1.116 1.065 0 1.972-.368 2.708-1.116.736-.748 1.104-1.653 1.104-2.716 0-1.063-.368-1.969-1.104-2.717-.736-.748-1.643-1.115-2.708-1.115-1.065 0-1.972.367-2.708 1.115-.736.748-1.104 1.654-1.104 2.717 0 1.063.368 1.968 1.104 2.716zm14.368-7.401c1.301 0 2.392.446 3.299 1.351.907.906 1.354 2.022 1.354 3.334 0 1.325-.46 2.428-1.354 3.333-.907.906-2.011 1.352-3.299 1.352-.855 0-1.617-.21-2.301-.604a4.105 4.105 0 01-1.577-1.667v5.683h-.894V32.205h.894v2.086a4.104 4.104 0 011.577-1.666c.684-.433 1.446-.63 2.301-.63zm-2.761 7.401c.736.735 1.643 1.116 2.708 1.116 1.065 0 1.972-.368 2.708-1.116.736-.748 1.104-1.653 1.104-2.716 0-1.063-.368-1.969-1.104-2.717-.736-.748-1.643-1.115-2.708-1.115-1.065 0-1.972.367-2.708 1.115-.736.748-1.104 1.654-1.104 2.717 0 1.063.368 1.968 1.104 2.716zm10.03-4.855c0 .446.184.787.565 1.036.368.25.828.434 1.367.565.539.131 1.078.262 1.604.42.539.157.986.42 1.354.787.368.368.565.853.565 1.47 0 .748-.302 1.352-.894 1.837-.591.486-1.367.722-2.326.722-.868 0-1.591-.184-2.182-.551-.592-.368-.999-.853-1.236-1.444l.775-.446c.171.486.487.88.947 1.155.46.276 1.025.42 1.696.42.67 0 1.222-.145 1.669-.433.434-.289.657-.709.657-1.247 0-.446-.184-.8-.565-1.063-.368-.262-.828-.46-1.367-.59-.539-.132-1.078-.263-1.604-.42-.526-.158-.986-.407-1.354-.775-.368-.354-.552-.84-.552-1.43 0-.722.289-1.326.855-1.811.565-.486 1.301-.735 2.208-.735.723 0 1.341.157 1.88.485.539.328.933.762 1.183 1.313l-.763.433a1.95 1.95 0 00-.907-1.01 2.795 2.795 0 00-1.406-.355c-.605 0-1.131.157-1.538.46-.408.301-.631.695-.631 1.207z" fill="#818181"/></g><defs><clipPath id="clip0"><path fill="#fff" d="M0 0h217v45H0z"/></clipPath></defs></svg>