<svg width="217" height="45" viewBox="0 0 217 45" fill="none" xmlns="http://www.w3.org/2000/svg">
<g clip-path="url(#clip0)">
<path d="M0 18.1365V12.336L14.1836 0.459351V6.64045L3.57548 15.1838L14.1836 23.7796V30.0132L0 18.1365Z" fill="white"/>
<path d="M14.1836 34.9868L24.7917 26.4435L14.1836 17.8477V11.6141L28.3672 23.4908V29.2913L14.1836 41.1679V34.9868Z" fill="#3DD5A2"/>
<path d="M38.5676 19.147H48.4396V22.6378H34.9001V0.380615H48.2819V3.87143H38.5676V9.65883H47.4932V13.1234H38.5676V19.147ZM58.7717 23.0578C56.3662 23.0578 54.3681 22.2441 52.7644 20.6431C51.1475 19.0289 50.3457 17.0473 50.3457 14.6982C50.3457 12.3229 51.1475 10.3281 52.7512 8.72707C54.3549 7.12602 56.353 6.3255 58.7586 6.3255C60.3097 6.3255 61.7162 6.69295 62.9913 7.44098C64.2664 8.18901 65.226 9.17327 65.8569 10.4331L62.8861 12.1523C62.5312 11.3911 61.9791 10.7874 61.243 10.3544C60.5069 9.9213 59.6656 9.6982 58.706 9.6982C57.2995 9.6982 56.1295 10.1706 55.1831 11.1286C54.2366 12.0867 53.7634 13.2678 53.7634 14.6982C53.7634 16.1155 54.2366 17.3098 55.1831 18.2546C56.1295 19.2126 57.2995 19.6851 58.706 19.6851C59.6393 19.6851 60.4806 19.462 61.243 19.0158C61.9923 18.5696 62.5707 17.979 62.9519 17.231L65.9227 18.9108C65.2391 20.1838 64.2664 21.1943 62.9913 21.9292C61.7294 22.6903 60.3097 23.0578 58.7717 23.0578ZM77.5035 0.380615C80.5663 0.380615 83.1034 1.45673 85.1409 3.59584C87.1652 5.73495 88.1774 8.38587 88.1774 11.5223C88.1774 14.6457 87.1652 17.2704 85.1409 19.4226C83.1165 21.5748 80.5663 22.651 77.5035 22.651H68.7357V0.380615H77.5035ZM77.5035 19.147C79.6068 19.147 81.3156 18.4252 82.6433 16.9817C83.9709 15.5381 84.6282 13.7139 84.6282 11.5092C84.6282 9.27825 83.9709 7.45411 82.6433 6.02366C81.3156 4.59321 79.5936 3.87143 77.5035 3.87143H72.4032V19.147H77.5035ZM94.0007 16.1549C94.2504 17.3622 94.842 18.294 95.749 18.937C96.656 19.5801 97.7733 19.9082 99.101 19.9082C100.928 19.9082 102.295 19.252 103.215 17.9397L106.055 19.5932C104.477 21.9029 102.151 23.0578 99.0747 23.0578C96.4851 23.0578 94.395 22.2704 92.7913 20.6825C91.2008 19.1077 90.3989 17.0998 90.3989 14.6851C90.3989 12.3097 91.1876 10.315 92.7519 8.71395C94.3162 7.1129 96.3405 6.31237 98.7987 6.31237C101.138 6.31237 103.058 7.12602 104.556 8.76644C106.055 10.3937 106.804 12.3885 106.804 14.7113C106.804 15.0657 106.765 15.5512 106.673 16.1418H94.0007V16.1549ZM93.9744 13.3596H103.347C103.11 12.0735 102.584 11.0893 101.743 10.4331C100.902 9.77694 99.916 9.44886 98.7987 9.44886C97.5236 9.44886 96.4588 9.80319 95.6175 10.4987C94.75 11.1943 94.211 12.1523 93.9744 13.3596ZM120.002 6.74544H123.761L117.544 22.651H113.561L107.356 6.74544H111.116L115.572 18.8321L120.002 6.74544Z" fill="white"/>
<path d="M133.489 23.0315C131.451 23.0315 129.703 22.5459 128.244 21.5879C126.785 20.6299 125.773 19.2913 125.194 17.5984L127.1 16.4829C127.508 17.8609 128.244 18.937 129.335 19.7113C130.413 20.4856 131.806 20.8661 133.502 20.8661C135.158 20.8661 136.447 20.4987 137.38 19.7638C138.3 19.0289 138.76 18.0577 138.76 16.8504C138.76 15.6824 138.339 14.8032 137.485 14.2126C136.631 13.6221 135.237 13.0053 133.279 12.3622C130.965 11.6011 129.427 10.9843 128.691 10.5118C126.995 9.50132 126.141 8.01838 126.141 6.08924C126.141 4.19948 126.798 2.71654 128.113 1.61418C129.427 0.524936 131.057 -0.0262451 132.989 -0.0262451C134.738 -0.0262451 136.236 0.419949 137.511 1.32546C138.786 2.23097 139.733 3.37271 140.351 4.77691L138.471 5.82678C137.446 3.37271 135.618 2.13911 132.989 2.13911C131.609 2.13911 130.492 2.48032 129.637 3.14961C128.783 3.83202 128.362 4.77691 128.362 5.98426C128.362 7.08662 128.744 7.91339 129.506 8.46457C130.268 9.01575 131.53 9.58006 133.305 10.1444C134.107 10.42 134.685 10.6168 135.04 10.7349C135.395 10.853 135.894 11.0367 136.565 11.3123C137.235 11.5748 137.722 11.811 138.05 12.0079C138.366 12.2047 138.76 12.4803 139.207 12.8347C139.667 13.189 139.996 13.5302 140.193 13.8845C140.39 14.2389 140.574 14.6588 140.732 15.1575C140.89 15.6562 140.969 16.1942 140.969 16.7585C140.969 18.6483 140.272 20.1575 138.892 21.2861C137.551 22.4672 135.737 23.0315 133.489 23.0315ZM152.471 8.77953H147.883V18.4121C147.883 19.2782 148.054 19.9081 148.396 20.2756C148.737 20.6431 149.25 20.8399 149.933 20.853C150.617 20.8661 151.458 20.853 152.484 20.8005V22.6509C150.249 22.9921 148.58 22.8347 147.462 22.1785C146.345 21.5223 145.793 20.2756 145.793 18.4252V8.77953H142.441V6.74541H145.793V2.92651L147.896 2.29659V6.74541H152.484V8.77953H152.471ZM167.193 6.74541H169.296V22.6509H167.193V20.1706C166.01 22.0735 164.222 23.0315 161.843 23.0315C159.911 23.0315 158.386 22.441 157.268 21.2598C156.151 20.0787 155.599 18.5039 155.599 16.5092V6.74541H157.702V16.5092C157.702 17.9265 158.083 19.0289 158.833 19.8163C159.582 20.6037 160.66 20.9974 162.027 20.9974C163.565 20.9974 164.801 20.5118 165.76 19.5538C166.72 18.5827 167.193 17.0997 167.193 15.0787V6.74541ZM187.463 0.380579H189.566V22.6509H187.463V19.5276C185.991 21.8635 183.848 23.0315 181.022 23.0315C178.748 23.0315 176.802 22.2179 175.212 20.6168C173.621 19.0158 172.806 17.0341 172.806 14.6982C172.806 12.3622 173.608 10.3937 175.212 8.77953C176.815 7.16536 178.761 6.36483 181.022 6.36483C183.848 6.36483 185.991 7.53281 187.463 9.86877V0.380579ZM176.723 19.1601C177.933 20.3806 179.418 20.9843 181.179 20.9843C182.941 20.9843 184.426 20.3806 185.636 19.1601C186.845 17.9396 187.45 16.4567 187.45 14.6982C187.45 12.9396 186.845 11.4436 185.636 10.2231C184.426 9.00263 182.941 8.39895 181.179 8.39895C179.418 8.39895 177.933 9.00263 176.723 10.2231C175.514 11.4436 174.909 12.9265 174.909 14.6982C174.909 16.4567 175.501 17.9396 176.723 19.1601ZM196.152 2.92651C195.849 3.22835 195.495 3.37271 195.074 3.37271C194.653 3.37271 194.285 3.22835 193.996 2.92651C193.694 2.62467 193.549 2.27034 193.549 1.8504C193.549 1.43045 193.694 1.06299 193.996 0.77428C194.298 0.485566 194.653 0.328086 195.074 0.328086C195.495 0.328086 195.863 0.472443 196.152 0.77428C196.454 1.07612 196.599 1.43045 196.599 1.8504C196.599 2.27034 196.454 2.62467 196.152 2.92651ZM194.022 22.6509V6.74541H196.126V22.6509H194.022ZM213.95 20.6299C212.32 22.231 210.349 23.0315 208.009 23.0315C205.669 23.0315 203.684 22.231 202.067 20.6299C200.437 19.0289 199.635 17.0473 199.635 14.6982C199.635 12.3491 200.45 10.3675 202.067 8.76641C203.697 7.16536 205.669 6.36483 208.009 6.36483C210.349 6.36483 212.333 7.16536 213.95 8.76641C215.58 10.3675 216.382 12.3491 216.382 14.6982C216.382 17.0473 215.58 19.0289 213.95 20.6299ZM203.553 19.1601C204.762 20.3806 206.247 20.9843 208.009 20.9843C209.77 20.9843 211.256 20.3806 212.465 19.1601C213.674 17.9396 214.279 16.4567 214.279 14.6982C214.279 12.9396 213.674 11.4436 212.465 10.2231C211.256 9.00263 209.77 8.39895 208.009 8.39895C206.247 8.39895 204.762 9.00263 203.553 10.2231C202.343 11.4436 201.738 12.9265 201.738 14.6982C201.725 16.4567 202.33 17.9396 203.553 19.1601Z" fill="#3DD5A2"/>
<path d="M42.3273 34.6457C42.9057 34.9213 43.3658 35.315 43.7076 35.8268C44.0493 36.3386 44.2202 36.9291 44.2202 37.6116C44.2202 38.6221 43.8653 39.4619 43.1555 40.1444C42.4456 40.8268 41.578 41.168 40.5659 41.168H35.1238V28.5958H40.1715C41.1574 28.5958 41.9855 28.9239 42.6691 29.58C43.3526 30.2362 43.6944 31.0499 43.6944 32.021C43.6944 33.1365 43.2343 34.0157 42.3273 34.6457ZM40.1715 30.1575H36.8064V34.0026H40.1715C40.6973 34.0026 41.1443 33.8189 41.4992 33.4383C41.8541 33.0709 42.0381 32.6115 42.0381 32.0735C42.0381 31.5486 41.8541 31.0892 41.486 30.7218C41.118 30.3412 40.6842 30.1575 40.1715 30.1575ZM40.5659 39.6063C41.1311 39.6063 41.6043 39.4095 41.9855 39.0158C42.3667 38.6221 42.5639 38.1365 42.5639 37.5591C42.5639 36.9948 42.3667 36.5223 41.9724 36.1286C41.578 35.7349 41.118 35.5381 40.5659 35.5381H36.8064V39.6194H40.5659V39.6063ZM46.0342 41.168V28.0577H47.5985V41.168H46.0342ZM57.4442 32.1916H59.0085V41.1811H57.4442V39.6326C56.6687 40.8137 55.5382 41.4173 54.0396 41.4173C52.7777 41.4173 51.7129 40.958 50.8191 40.0394C49.9252 39.1207 49.4914 38.0053 49.4914 36.6929C49.4914 35.3806 49.9384 34.2651 50.8191 33.3465C51.6998 32.4278 52.7777 31.9685 54.0396 31.9685C55.525 31.9685 56.6687 32.5591 57.4442 33.7402V32.1916ZM54.2368 39.895C55.1438 39.895 55.9194 39.5801 56.5241 38.9633C57.1287 38.3465 57.4442 37.5853 57.4442 36.6667C57.4442 35.7612 57.1419 34.9869 56.5241 34.3832C55.9194 33.7664 55.1438 33.4514 54.2368 33.4514C53.3429 33.4514 52.5805 33.7664 51.9758 34.3832C51.3712 35 51.0557 35.7612 51.0557 36.6667C51.0557 37.5722 51.358 38.3465 51.9758 38.9633C52.5805 39.5801 53.3429 39.895 54.2368 39.895ZM63.2018 39.6719H67.9866V41.168H61.0591V40.1312L65.6468 33.6745H61.23V32.1785H67.8026V33.2152L63.2018 39.6719ZM70.6551 30.5512C70.3528 30.5512 70.103 30.4462 69.8927 30.2493C69.6955 30.0525 69.5903 29.8031 69.5903 29.5144C69.5903 29.2257 69.6955 28.9764 69.8927 28.7664C70.103 28.5564 70.3528 28.4514 70.6551 28.4514C70.9443 28.4514 71.194 28.5564 71.3912 28.7664C71.6015 28.9764 71.6936 29.2257 71.6936 29.5144C71.6936 29.8031 71.5884 30.0525 71.3912 30.2493C71.194 30.4462 70.9443 30.5512 70.6551 30.5512ZM69.8664 41.168V32.1785H71.4307V41.168H69.8664ZM78.3056 31.9554C79.3572 31.9554 80.2116 32.2835 80.8426 32.9528C81.4735 33.622 81.8022 34.5144 81.8022 35.6562V41.168H80.2379V35.7349C80.2379 35 80.0407 34.4357 79.6464 34.042C79.252 33.6352 78.7131 33.4383 78.0164 33.4383C77.2408 33.4383 76.6098 33.6745 76.1235 34.1732C75.6371 34.6588 75.4005 35.4068 75.4005 36.4042V41.168H73.8362V32.1785H75.4005V33.4777C76.0183 32.4672 76.9911 31.9554 78.3056 31.9554ZM91.4376 32.1916H92.9887V40.8005C92.9887 42.126 92.5418 43.1627 91.6347 43.8976C90.7277 44.6326 89.6498 45 88.401 45C87.3889 45 86.5213 44.8163 85.7851 44.4357C85.049 44.0551 84.4969 43.5171 84.1289 42.8084L85.496 42.0341C85.9823 43.0446 86.9682 43.5433 88.4273 43.5433C89.3606 43.5433 90.0968 43.294 90.6357 42.8084C91.1747 42.3228 91.4376 41.6536 91.4376 40.8005V39.5276C90.6488 40.7218 89.5184 41.3255 88.0593 41.3255C86.771 41.3255 85.6931 40.8661 84.7993 39.9606C83.9054 39.0551 83.4716 37.9396 83.4716 36.6404C83.4716 35.3412 83.9185 34.2257 84.7993 33.3202C85.68 32.4147 86.771 31.9685 88.0593 31.9685C89.5315 31.9685 90.662 32.5591 91.4376 33.7402V32.1916ZM85.956 38.8976C86.5607 39.5013 87.3231 39.8163 88.2433 39.8163C89.1635 39.8163 89.9127 39.5013 90.5305 38.8976C91.1484 38.294 91.4507 37.5328 91.4507 36.6142C91.4507 35.7087 91.1484 34.9606 90.5305 34.3438C89.9259 33.7402 89.1635 33.4252 88.2433 33.4252C87.3231 33.4252 86.5739 33.727 85.956 34.3438C85.3382 34.9606 85.0359 35.7087 85.0359 36.6142C85.0359 37.5328 85.3382 38.294 85.956 38.8976ZM104.438 29.5276C103.557 29.4619 102.913 29.6063 102.479 29.9738C102.059 30.3412 101.835 30.958 101.835 31.8241V32.1785H104.425V33.3333H101.835V41.168H100.652V33.3333H99.1143V32.1785H100.652V31.8241C100.652 30.6562 100.981 29.7638 101.638 29.1601C102.295 28.5564 103.229 28.294 104.438 28.3727V29.5276ZM112.89 32.1916H114.073V41.1811H112.89V39.4226C112.062 40.7349 110.853 41.4042 109.249 41.4042C107.961 41.4042 106.87 40.9449 105.963 40.0394C105.056 39.1339 104.609 38.0184 104.609 36.6929C104.609 35.3806 105.069 34.2651 105.963 33.3465C106.87 32.4409 107.961 31.9816 109.249 31.9816C110.853 31.9816 112.062 32.6378 112.89 33.9633V32.1916ZM106.831 39.1995C107.514 39.8819 108.355 40.2362 109.354 40.2362C110.353 40.2362 111.195 39.895 111.878 39.1995C112.562 38.5171 112.904 37.664 112.904 36.6798C112.904 35.6824 112.562 34.8425 111.878 34.1601C111.195 33.4777 110.353 33.1234 109.354 33.1234C108.355 33.1234 107.527 33.4646 106.831 34.1601C106.147 34.8425 105.805 35.6955 105.805 36.6798C105.805 37.6772 106.147 38.5171 106.831 39.1995ZM117.531 34.5407C117.531 34.9475 117.715 35.2756 118.07 35.5118C118.425 35.748 118.871 35.9449 119.384 36.0761C119.897 36.2074 120.409 36.3517 120.935 36.5092C121.448 36.6667 121.895 36.9423 122.25 37.3228C122.605 37.7034 122.789 38.189 122.789 38.8058C122.789 39.5669 122.486 40.1969 121.882 40.6824C121.277 41.1549 120.501 41.4042 119.529 41.4042C118.661 41.4042 117.925 41.2074 117.32 40.8268C116.716 40.4462 116.282 39.9475 116.045 39.3307L117.057 38.7402C117.228 39.2126 117.531 39.5801 117.964 39.8425C118.398 40.105 118.924 40.2494 119.516 40.2494C120.107 40.2494 120.593 40.1312 120.988 39.895C121.382 39.6588 121.579 39.2913 121.579 38.8058C121.579 38.399 121.395 38.0709 121.04 37.8346C120.686 37.5984 120.239 37.4147 119.726 37.2835C119.213 37.1522 118.687 37.0079 118.175 36.8373C117.662 36.6798 117.215 36.4042 116.86 36.0236C116.505 35.643 116.321 35.1575 116.321 34.5407C116.321 33.8058 116.611 33.2021 117.202 32.7034C117.78 32.2178 118.517 31.9685 119.41 31.9685C120.147 31.9685 120.791 32.126 121.343 32.4672C121.895 32.7953 122.302 33.2415 122.565 33.8058L121.579 34.3832C121.224 33.5433 120.515 33.1234 119.424 33.1234C118.911 33.1234 118.464 33.2415 118.096 33.4908C117.715 33.727 117.531 34.0814 117.531 34.5407ZM129.177 33.3333H126.588V38.7795C126.588 39.2651 126.68 39.6194 126.877 39.8294C127.061 40.0394 127.363 40.1444 127.744 40.1575C128.126 40.1706 128.599 40.1575 129.177 40.1312V41.168C127.915 41.3517 126.969 41.273 126.338 40.8924C125.707 40.5249 125.391 39.8163 125.391 38.7664V33.3333H123.499V32.1785H125.405V30.0262L126.588 29.6719V32.1916H129.177V33.3333ZM146.713 32.1916H147.672L144.833 41.1811H143.847L141.35 33.5302L138.852 41.1811H137.866L135.027 32.1916H135.986L138.379 40.0131L140.903 32.1916H141.836L144.36 40.0131L146.713 32.1916ZM153.338 31.9948C154.653 31.9948 155.73 32.4541 156.545 33.399C157.36 34.3307 157.781 35.4462 157.781 36.7192C157.781 36.7717 157.781 36.8373 157.768 36.9291C157.768 37.021 157.755 37.0997 157.755 37.1391H149.605C149.71 38.1496 150.117 38.9633 150.814 39.5669C151.511 40.1837 152.378 40.4987 153.417 40.4987C154.14 40.4987 154.771 40.3543 155.31 40.0525C155.849 39.7507 156.256 39.357 156.532 38.8714L157.321 39.3307C156.953 39.9606 156.414 40.4462 155.744 40.8137C155.06 41.1811 154.284 41.3648 153.404 41.3648C152.024 41.3648 150.893 40.9318 149.999 40.0394C149.105 39.147 148.672 38.0315 148.672 36.6667C148.672 35.3281 149.105 34.2126 149.973 33.3202C150.84 32.4409 151.971 31.9948 153.338 31.9948ZM153.338 32.8478C152.313 32.8478 151.458 33.1627 150.788 33.8058C150.104 34.4357 149.71 35.2625 149.618 36.2598H156.848C156.756 35.1969 156.375 34.357 155.704 33.7533C155.034 33.1496 154.245 32.8478 153.338 32.8478ZM164.656 31.9948C165.944 31.9948 167.048 32.4409 167.955 33.3465C168.862 34.252 169.309 35.3675 169.309 36.6798C169.309 38.0053 168.849 39.1076 167.955 40.0131C167.048 40.9186 165.944 41.3648 164.656 41.3648C163.802 41.3648 163.039 41.1549 162.356 40.7612C161.672 40.3543 161.146 39.8032 160.778 39.0945V41.1811H159.884V28.6089H160.778V34.2913C161.146 33.5827 161.672 33.0315 162.356 32.6247C163.039 32.1916 163.802 31.9948 164.656 31.9948ZM161.882 39.3963C162.618 40.1312 163.526 40.5118 164.59 40.5118C165.655 40.5118 166.562 40.1444 167.298 39.3963C168.034 38.6483 168.402 37.7428 168.402 36.6798C168.402 35.6168 168.034 34.7113 167.298 33.9633C166.562 33.2152 165.655 32.8478 164.59 32.8478C163.526 32.8478 162.618 33.2152 161.882 33.9633C161.146 34.7113 160.778 35.6168 160.778 36.6798C160.778 37.7428 161.146 38.6483 161.882 39.3963ZM184.216 32.1916H185.136V41.1811H184.216V39.147C183.835 39.8425 183.309 40.3806 182.639 40.7874C181.968 41.1811 181.206 41.378 180.351 41.378C179.063 41.378 177.972 40.9186 177.052 40.0263C176.145 39.1207 175.685 38.0184 175.685 36.6929C175.685 35.3806 176.145 34.2651 177.052 33.3596C177.959 32.4541 179.063 32.0079 180.351 32.0079C181.206 32.0079 181.968 32.2047 182.639 32.5984C183.309 32.9921 183.835 33.5433 184.216 34.2388V32.1916ZM177.709 39.3963C178.445 40.1312 179.352 40.5118 180.417 40.5118C181.482 40.5118 182.389 40.1444 183.112 39.3963C183.848 38.6483 184.216 37.7428 184.216 36.6798C184.216 35.6168 183.848 34.7113 183.112 33.9633C182.376 33.2152 181.482 32.8478 180.417 32.8478C179.352 32.8478 178.445 33.2152 177.709 33.9633C176.973 34.7113 176.605 35.6168 176.605 36.6798C176.605 37.7428 176.973 38.6483 177.709 39.3963ZM192.668 31.9948C193.957 31.9948 195.061 32.4409 195.968 33.3465C196.875 34.252 197.322 35.3675 197.322 36.6798C197.322 38.0053 196.862 39.1076 195.968 40.0131C195.061 40.9186 193.957 41.3648 192.668 41.3648C191.814 41.3648 191.051 41.1549 190.368 40.7612C189.684 40.3543 189.159 39.8032 188.79 39.0945V44.7769H187.897V32.2047H188.79V34.2913C189.159 33.5827 189.684 33.0315 190.368 32.6247C191.051 32.1916 191.814 31.9948 192.668 31.9948ZM189.908 39.3963C190.644 40.1312 191.551 40.5118 192.616 40.5118C193.68 40.5118 194.587 40.1444 195.324 39.3963C196.06 38.6483 196.428 37.7428 196.428 36.6798C196.428 35.6168 196.06 34.7113 195.324 33.9633C194.587 33.2152 193.68 32.8478 192.616 32.8478C191.551 32.8478 190.644 33.2152 189.908 33.9633C189.172 34.7113 188.804 35.6168 188.804 36.6798C188.804 37.7428 189.172 38.6483 189.908 39.3963ZM204.275 31.9948C205.577 31.9948 206.668 32.4409 207.575 33.3465C208.482 34.252 208.929 35.3675 208.929 36.6798C208.929 38.0053 208.469 39.1076 207.575 40.0131C206.668 40.9186 205.564 41.3648 204.275 41.3648C203.421 41.3648 202.659 41.1549 201.975 40.7612C201.292 40.3543 200.766 39.8032 200.398 39.0945V44.7769H199.504V32.2047H200.398V34.2913C200.766 33.5827 201.292 33.0315 201.975 32.6247C202.659 32.1916 203.421 31.9948 204.275 31.9948ZM201.515 39.3963C202.251 40.1312 203.158 40.5118 204.223 40.5118C205.288 40.5118 206.195 40.1444 206.931 39.3963C207.667 38.6483 208.035 37.7428 208.035 36.6798C208.035 35.6168 207.667 34.7113 206.931 33.9633C206.195 33.2152 205.288 32.8478 204.223 32.8478C203.158 32.8478 202.251 33.2152 201.515 33.9633C200.779 34.7113 200.411 35.6168 200.411 36.6798C200.411 37.7428 200.779 38.6483 201.515 39.3963ZM211.545 34.5407C211.545 34.9869 211.729 35.3281 212.11 35.5774C212.478 35.8268 212.938 36.0105 213.477 36.1417C214.016 36.273 214.555 36.4042 215.081 36.5617C215.62 36.7192 216.067 36.9816 216.435 37.3491C216.803 37.7165 217 38.2021 217 38.8189C217 39.5669 216.698 40.1706 216.106 40.6562C215.515 41.1417 214.739 41.378 213.779 41.378C212.912 41.378 212.189 41.1942 211.597 40.8268C211.006 40.4593 210.598 39.9738 210.362 39.3832L211.137 38.937C211.308 39.4226 211.624 39.8163 212.084 40.0919C212.544 40.3675 213.109 40.5118 213.779 40.5118C214.45 40.5118 215.002 40.3675 215.449 40.0787C215.883 39.79 216.106 39.3701 216.106 38.832C216.106 38.3858 215.922 38.0315 215.541 37.769C215.173 37.5066 214.713 37.3097 214.174 37.1785C213.635 37.0472 213.096 36.916 212.57 36.7585C212.044 36.6011 211.584 36.3517 211.216 35.9843C210.848 35.6299 210.664 35.1444 210.664 34.5538C210.664 33.832 210.953 33.2283 211.518 32.7428C212.084 32.2572 212.82 32.0079 213.727 32.0079C214.45 32.0079 215.068 32.1654 215.607 32.4934C216.146 32.8215 216.54 33.2546 216.79 33.8058L216.027 34.2388C215.843 33.7927 215.541 33.4514 215.12 33.2283C214.7 32.9921 214.239 32.874 213.714 32.874C213.109 32.874 212.583 33.0315 212.176 33.3333C211.768 33.6352 211.545 34.0289 211.545 34.5407Z" fill="#E4E4E4"/>
</g>
<defs>
<clipPath id="clip0">
<rect width="217" height="45" fill="white"/>
</clipPath>
</defs>
</svg>
