<svg width="40" height="28" viewBox="0 0 40 28" fill="none" xmlns="http://www.w3.org/2000/svg">
<g clip-path="url(#clip0)">
<path d="M36.2915 28H3.70853C1.66202 28 0 26.3479 0 24.3135V3.68648C0 1.65214 1.66202 0 3.70853 0H36.3039C38.3504 0 40.0124 1.65214 40.0124 3.68648V24.3135C40 26.3479 38.338 28 36.2915 28Z" fill="#36495D"/>
<path d="M23.3675 8.00159H16.645V20.0104H23.3675V8.00159Z" fill="#F16522"/>
<path d="M17.0667 14.0063C17.0667 11.5651 18.2202 9.40741 20.0063 8.00187C18.7039 6.97853 17.0543 6.37439 15.2559 6.37439C11.014 6.37439 7.57837 9.78962 7.57837 14.0063C7.57837 18.2229 11.014 21.6382 15.2559 21.6382C17.0419 21.6382 18.6915 21.034 20.0063 20.0107C18.2202 18.6051 17.0667 16.4352 17.0667 14.0063Z" fill="#E41B24"/>
<path d="M32.4218 14.0061C32.4218 18.2227 28.9861 21.6379 24.7443 21.6379C22.9582 21.6379 21.3086 21.0338 19.9939 20.0105C21.7799 18.6172 22.921 16.4473 22.921 14.0061C22.921 11.5648 21.7799 9.4072 19.9939 8.00166C21.2962 6.97832 22.9458 6.37418 24.7443 6.37418C28.9861 6.36185 32.4218 9.78941 32.4218 14.0061ZM31.69 18.7282V18.4816H31.7892V18.4323H31.5412V18.4816H31.6404V18.7282H31.69ZM32.1861 18.7282V18.4323H32.1117L32.0249 18.6419L31.9381 18.4323H31.8637V18.7282H31.9133V18.5063L32.0001 18.7035H32.0621L32.1489 18.5063V18.7282H32.1861Z" fill="#F89E1C"/>
</g>
<defs>
<clipPath id="clip0">
<rect width="40" height="28" fill="white"/>
</clipPath>
</defs>
</svg>
