<svg width="40" height="28" viewBox="0 0 40 28" fill="none" xmlns="http://www.w3.org/2000/svg">
<path d="M36.2802 28H3.70738C1.6615 28 0 26.3479 0 24.3135V3.68648C0 1.65214 1.6615 0 3.70738 0H36.2926C38.3385 0 40 1.65214 40 3.68648V24.3135C39.9876 26.3479 38.3261 28 36.2802 28Z" fill="white"/>
<path fill-rule="evenodd" clip-rule="evenodd" d="M8.02857 9.74072C9.10138 9.74072 10.0913 10.3279 9.95585 11.7913C9.79169 13.5305 8.86826 14.4929 7.41131 14.497H6.13822C5.95517 14.497 5.86653 14.6478 5.81892 14.9567L5.57267 16.536C5.53574 16.7745 5.41425 16.8922 5.23532 16.8922H4.05087C3.86209 16.8922 3.79642 16.7704 3.83828 16.4979L4.81588 10.1681C4.86431 9.85667 4.98004 9.74072 5.19099 9.74072H8.0261H8.02857ZM6.09964 13.1297H7.0641C7.66741 13.1065 8.06796 12.6849 8.10818 11.9247C8.13281 11.4551 7.81844 11.1188 7.31856 11.1213L6.41073 11.1255L6.09964 13.1297ZM13.1759 16.4077C13.2843 16.3083 13.3943 16.2569 13.3787 16.3795L13.3401 16.6727C13.3204 16.8259 13.3803 16.9071 13.5215 16.9071H14.5738C14.7511 16.9071 14.8373 16.835 14.8808 16.5584L15.5292 12.4522C15.562 12.246 15.512 12.145 15.3568 12.145H14.1995C14.0952 12.145 14.0444 12.2038 14.0173 12.3644L13.9746 12.617C13.9524 12.7487 13.8925 12.7719 13.8367 12.6394C13.6405 12.1706 13.1398 11.9603 12.4413 11.9768C10.8185 12.0108 9.72438 13.2539 9.607 14.8473C9.51671 16.0797 10.3917 17.0478 11.5458 17.0478C12.383 17.0478 12.7573 16.7994 13.1792 16.4101L13.1759 16.4077ZM12.2944 15.7757C11.5958 15.7757 11.1091 15.2134 11.2101 14.5244C11.311 13.8353 11.9644 13.273 12.6629 13.273C13.3614 13.273 13.8482 13.8353 13.7472 14.5244C13.6463 15.2134 12.9937 15.7757 12.2944 15.7757ZM17.5886 12.1317H16.5216C16.3016 12.1317 16.2121 12.2973 16.2819 12.5011L17.6067 16.4151L16.3074 18.2777C16.1982 18.4334 16.2827 18.575 16.4362 18.575H17.6354C17.7053 18.5832 17.7761 18.5709 17.8392 18.5396C17.9024 18.5083 17.9553 18.4594 17.9917 18.3986L22.0662 12.5019C22.1918 12.3205 22.1327 12.1301 21.9267 12.1301H20.7915C20.597 12.1301 20.519 12.2079 20.4073 12.3711L18.7082 14.8556L17.949 12.3653C17.9047 12.2145 17.7939 12.1317 17.5895 12.1317H17.5886Z" fill="#113984"/>
<path fill-rule="evenodd" clip-rule="evenodd" d="M26.3051 9.74067C27.3779 9.74067 28.3678 10.3279 28.2324 11.7913C28.0682 13.5305 27.1448 14.4928 25.6879 14.497H24.4156C24.2325 14.497 24.1439 14.6477 24.0963 14.9566L23.85 16.536C23.8131 16.7745 23.6916 16.8921 23.5127 16.8921H22.3282C22.1394 16.8921 22.0738 16.7704 22.1156 16.4979L23.0949 10.1664C23.1433 9.85496 23.259 9.73901 23.47 9.73901H26.3051V9.74067ZM24.3762 13.1296H25.3406C25.944 13.1064 26.3445 12.6849 26.3847 11.9246C26.4094 11.455 26.095 11.1188 25.5951 11.1213L24.6873 11.1254L24.3762 13.1296ZM31.4525 16.4076C31.5609 16.3082 31.6708 16.2569 31.6552 16.3795L31.6167 16.6726C31.597 16.8259 31.6569 16.907 31.7981 16.907H32.8504C33.0277 16.907 33.1139 16.835 33.1574 16.5583L33.8058 12.4522C33.8386 12.246 33.7886 12.1449 33.6334 12.1449H32.4777C32.3735 12.1449 32.3226 12.2037 32.2955 12.3644L32.2528 12.617C32.2306 12.7487 32.1707 12.7719 32.1149 12.6393C31.9187 12.1706 31.418 11.9602 30.7195 11.9768C29.0967 12.0107 28.0026 13.2539 27.8852 14.8473C27.7949 16.0797 28.6699 17.0478 29.824 17.0478C30.6612 17.0478 31.0355 16.7994 31.4574 16.4101L31.4525 16.4076ZM30.5718 15.7757C29.8732 15.7757 29.3865 15.2134 29.4875 14.5243C29.5884 13.8353 30.2418 13.2729 30.9403 13.2729C31.6388 13.2729 32.1256 13.8353 32.0246 14.5243C31.9237 15.2134 31.2703 15.7757 30.5718 15.7757ZM35.4253 16.9136H34.2105C34.1893 16.9146 34.1683 16.9108 34.1487 16.9026C34.1292 16.8944 34.1117 16.8819 34.0976 16.8661C34.0834 16.8503 34.0728 16.8315 34.0666 16.8111C34.0605 16.7907 34.0589 16.7691 34.0619 16.748L35.129 9.92701C35.1392 9.88046 35.1647 9.83876 35.2013 9.80869C35.238 9.77861 35.2837 9.76194 35.3309 9.76138H36.5457C36.5669 9.76042 36.5879 9.76419 36.6075 9.77241C36.627 9.78062 36.6445 9.79309 36.6586 9.80891C36.6728 9.82474 36.6834 9.84353 36.6896 9.86394C36.6957 9.88436 36.6973 9.9059 36.6943 9.92701L35.6272 16.748C35.6174 16.7949 35.592 16.8369 35.5553 16.8673C35.5186 16.8977 35.4728 16.9147 35.4253 16.9153V16.9136Z" fill="#009EE3"/>
</svg>
