<svg width="40" height="28" viewBox="0 0 40 28" fill="none" xmlns="http://www.w3.org/2000/svg">
<g clip-path="url(#clip0)">
<path d="M36.2915 28H3.70853C1.66202 28 0 26.3479 0 24.3135V3.68648C0 1.65214 1.66202 0 3.70853 0H36.3039C38.3504 0 40.0124 1.65214 40.0124 3.68648V24.3135C40 26.3479 38.338 28 36.2915 28Z" fill="#0066B2"/>
<path d="M18.3069 18.3831H16.2231L17.5255 10.4307H19.6092L18.3069 18.3831Z" fill="white"/>
<path d="M14.462 10.4307L12.4775 15.9049L12.2418 14.7213L11.5348 11.1458C11.5348 11.1458 11.448 10.4307 10.5426 10.4307H7.26817L7.23096 10.5663C7.23096 10.5663 8.23561 10.7759 9.4139 11.4787L11.2248 18.3954H13.3953L16.7069 10.443H14.462V10.4307Z" fill="white"/>
<path d="M30.8588 18.3831H32.7689L31.1069 10.4307H29.4324C28.6634 10.4307 28.465 11.0225 28.465 11.0225L25.3518 18.3831H27.5224L27.9565 17.1995H30.6107L30.8588 18.3831ZM28.5642 15.572L29.6557 12.6006L30.2758 15.572H28.5642Z" fill="white"/>
<path d="M25.5131 12.3416L25.8108 10.6278C25.8108 10.6278 24.893 10.2826 23.938 10.2826C22.9085 10.2826 20.4527 10.7265 20.4527 12.9211C20.4527 14.9801 23.3302 15.0047 23.3302 16.0774C23.3302 17.15 20.7504 16.9651 19.8945 16.287L19.5845 18.0748C19.5845 18.0748 20.5147 18.5186 21.9411 18.5186C23.3674 18.5186 25.5131 17.7912 25.5131 15.7938C25.5131 13.7225 22.6108 13.5375 22.6108 12.6375C22.5984 11.7375 24.6325 11.8608 25.5131 12.3416Z" fill="white"/>
<path d="M12.2418 14.7213L11.5348 11.1458C11.5348 11.1458 11.448 10.4307 10.5426 10.4307H7.26817L7.23096 10.5663C7.23096 10.5663 8.80615 10.8869 10.3193 12.1075C11.7705 13.2787 12.2418 14.7213 12.2418 14.7213Z" fill="#F9A533"/>
</g>
<defs>
<clipPath id="clip0">
<rect width="40" height="28" fill="white"/>
</clipPath>
</defs>
</svg>
